<?xml version="1.0" encoding="utf-8"?>
<!-- Generator: Adobe Illustrator 26.4.1, SVG Export Plug-In . SVG Version: 6.00 Build 0)  -->
<svg version="1.1" id="Layer_1" xmlns="http://www.w3.org/2000/svg" xmlns:xlink="http://www.w3.org/1999/xlink" x="0px" y="0px"
	 viewBox="0 0 612 792" style="enable-background:new 0 0 612 792;" xml:space="preserve">
<style type="text/css">
	.st0{fill:#2A754C;}
	.st1{font-family:'MelisandeSharp';}
	.st2{font-size:68.8317px;}
</style>
<g>
	<path class="st0" d="M485.8,478.9H129.3c-1.2,0-2.2-1.3-2.2-2.8l0,0c0-1.6,1-2.8,2.2-2.8h356.5c1.2,0,2.2,1.3,2.2,2.8l0,0
		C488,477.7,487,478.9,485.8,478.9z"/>
	<path class="st0" d="M379,422.4L379,422.4c0,1.3,1,2.3,2.3,2.4l48.5,0.2c1.3,0,2.4-1,2.4-2.3l0,0c0-1.3-1-2.3-2.3-2.4l-48.5-0.2
		C380.1,420.1,379,421.1,379,422.4z"/>
	<path class="st0" d="M421.5,395.3L421.5,395.3c0,1.3,1,2.3,2.3,2.4l48.5,0.2c1.3,0,2.3-1,2.3-2.3l0,0c0-1.3-1-2.3-2.3-2.4
		l-48.5-0.2C422.5,392.9,421.5,394,421.5,395.3z"/>
	<path class="st0" d="M428.7,423.5L428.7,423.5c0.6,1.1,2,1.5,3.1,0.8l41.7-26.7c1-0.7,1.4-2.1,0.8-3.2l0,0c-0.6-1.1-2-1.5-3.1-0.8
		l-41.7,26.7C428.4,421,428,422.4,428.7,423.5z"/>
	<path class="st0" d="M429.2,451.2L429.2,451.2c0.6,1.1,2,1.5,3.1,0.8l41.7-26.7c1-0.7,1.4-2.1,0.8-3.2l0,0c-0.6-1.1-2-1.5-3.1-0.8
		L429.9,448C428.9,448.7,428.6,450.1,429.2,451.2z"/>
	<path class="st0" d="M428.9,437.8L428.9,437.8c0.6,1.1,2,1.5,3.1,0.8l41.7-26.7c1-0.7,1.4-2.1,0.8-3.2l0,0c-0.6-1.1-2-1.5-3.1-0.8
		l-41.7,26.7C428.6,435.2,428.3,436.7,428.9,437.8z"/>
	<path class="st0" d="M379.5,450.3L379.5,450.3c0,1.3,1,2.3,2.3,2.4l48.5,0.2c1.3,0,2.4-1,2.4-2.3l0,0c0-1.3-1-2.3-2.3-2.4
		l-48.5-0.2C380.6,448,379.6,449,379.5,450.3z"/>
	<path class="st0" d="M379.2,436.5L379.2,436.5c0,1.3,1,2.3,2.3,2.4L430,439c1.3,0,2.3-1,2.3-2.3l0,0c0-1.3-1-2.3-2.3-2.4l-48.5-0.2
		C380.2,434.2,379.2,435.2,379.2,436.5z"/>
	<path class="st0" d="M379.5,423.5L379.5,423.5c0.6,1.1,2,1.5,3.1,0.8l41.7-26.7c1-0.7,1.4-2.1,0.8-3.2l0,0c-0.6-1.1-2-1.5-3.1-0.8
		l-41.7,26.7C379.2,420.9,378.9,422.4,379.5,423.5z"/>
	<g>
		
			<image style="overflow:visible;enable-background:new    ;" width="510" height="236" xlink:href="779ECFF0.png"  transform="matrix(5.882981e-02 0 0 5.882981e-02 410.9678 402.3434)">
		</image>
	</g>
	<text transform="matrix(0.9331 0 0 1 143.1062 452.5106)" class="st0 st1 st2">skedyul</text>
	<path class="st0" d="M486.5,375.5h-358c-1.2,0-2.2-1.3-2.2-2.8l0,0c0-1.6,1-2.8,2.2-2.8h358c1.2,0,2.2,1.3,2.2,2.8l0,0
		C488.7,374.2,487.7,375.5,486.5,375.5z"/>
	<path class="st0" d="M126.2,476V372.7c0-1.5,1.3-2.8,2.8-2.8h0.4c1.5,0,2.8,1.3,2.8,2.8V476c0,1.5-1.3,2.8-2.8,2.8H129
		C127.5,478.8,126.2,477.5,126.2,476z"/>
	<path class="st0" d="M482.7,476.2V372.8c0-1.5,1.3-2.8,2.8-2.8h0.4c1.5,0,2.8,1.3,2.8,2.8v103.4c0,1.5-1.3,2.8-2.8,2.8h-0.4
		C483.9,479,482.7,477.7,482.7,476.2z"/>
</g>
</svg>
