<?xml version="1.0" encoding="utf-8"?>
<!-- Generator: Adobe Illustrator 26.4.1, SVG Export Plug-In . SVG Version: 6.00 Build 0)  -->
<svg version="1.1" id="Layer_1" xmlns="http://www.w3.org/2000/svg" xmlns:xlink="http://www.w3.org/1999/xlink" x="0px" y="0px"
	 viewBox="0 0 612 792" style="enable-background:new 0 0 612 792;" xml:space="preserve">
<style type="text/css">
	.st0{fill:#2A754C;stroke:#FFFFFF;stroke-width:17;stroke-miterlimit:10;}
	.st1{fill:#FFFFFF;}
</style>
<path class="st0" d="M429.5,563.5h-247c-28.7,0-52-23.3-52-52v-231c0-28.7,23.3-52,52-52h247c28.7,0,52,23.3,52,52v231
	C481.5,540.2,458.2,563.5,429.5,563.5z"/>
<g id="Layer_2_00000082363632507805388170000003225025602921423518_">
</g>
<g>
	<path class="st1" d="M190.9,394.9L190.9,394.9c0,2.9,2.3,5.2,5.2,5.2l117,0.4c2.9,0,5.2-2.3,5.2-5.2l0,0c0-2.9-2.3-5.2-5.2-5.2
		l-117-0.4C193.3,389.7,191,392,190.9,394.9z"/>
	<path class="st1" d="M292.8,334.4L292.8,334.4c0,2.9,2.3,5.2,5.2,5.2l117,0.4c2.9,0,5.2-2.3,5.2-5.2l0,0c0-2.9-2.3-5.2-5.2-5.2
		l-117-0.4C295.1,329.2,292.8,331.5,292.8,334.4z"/>
	<path class="st1" d="M310,397.5L310,397.5c1.5,2.5,4.8,3.2,7.3,1.7l99.9-59.5c2.5-1.5,3.3-4.7,1.8-7.2l0,0
		c-1.5-2.5-4.8-3.2-7.3-1.7l-99.9,59.5C309.3,391.8,308.5,395,310,397.5z"/>
	<path class="st1" d="M311.2,459.3L311.2,459.3c1.5,2.5,4.8,3.2,7.3,1.7l99.9-59.5c2.5-1.5,3.3-4.7,1.8-7.2l0,0
		c-1.5-2.5-4.8-3.2-7.3-1.7L313,452.1C310.5,453.6,309.7,456.8,311.2,459.3z"/>
	<path class="st1" d="M310.5,429.2L310.5,429.2c1.5,2.5,4.8,3.2,7.3,1.7l99.9-59.5c2.5-1.5,3.3-4.7,1.8-7.2l0,0
		c-1.5-2.5-4.8-3.2-7.3-1.7L312.3,422C309.8,423.5,309,426.7,310.5,429.2z"/>
	<path class="st1" d="M192.3,457.2L192.3,457.2c0,2.9,2.3,5.2,5.2,5.2l117,0.4c2.9,0,5.2-2.3,5.2-5.2l0,0c0-2.9-2.3-5.2-5.2-5.2
		l-117-0.4C194.6,452,192.3,454.3,192.3,457.2z"/>
	<path class="st1" d="M191.3,426.5L191.3,426.5c0,2.9,2.3,5.2,5.2,5.2l117,0.4c2.9,0,5.2-2.3,5.2-5.2l0,0c0-2.9-2.3-5.2-5.2-5.2
		l-117-0.4C193.7,421.2,191.4,423.6,191.3,426.5z"/>
	<path class="st1" d="M192.1,397.3L192.1,397.3c1.5,2.5,4.8,3.2,7.3,1.7l99.9-59.5c2.5-1.5,3.3-4.7,1.8-7.2l0,0
		c-1.5-2.5-4.8-3.2-7.3-1.7l-99.9,59.5C191.4,391.6,190.6,394.8,192.1,397.3z"/>
</g>
<g>
	<g>
		
			<image style="overflow:visible;enable-background:new    ;" width="510" height="226" xlink:href="8CFBBE12.png"  transform="matrix(0.135 0 0 0.135 272.8495 348.8534)">
		</image>
	</g>
</g>
</svg>
