<?xml version="1.0" encoding="utf-8"?>
<!-- Generator: Adobe Illustrator 26.4.1, SVG Export Plug-In . SVG Version: 6.00 Build 0)  -->
<svg version="1.1" id="Layer_1" xmlns="http://www.w3.org/2000/svg" xmlns:xlink="http://www.w3.org/1999/xlink" x="0px" y="0px"
	 viewBox="0 0 612 792" style="enable-background:new 0 0 612 792;" xml:space="preserve">
<style type="text/css">
	.st0{fill:#2A754C;}
	.st1{font-family:'MelisandeSharp';}
	.st2{font-size:68.8317px;}
</style>
<text transform="matrix(0.9331 0 0 1 216.1533 454.5762)" class="st0 st1 st2">skedyul</text>
<path class="st0" d="M563.9,481.8h-493c-1.7,0-3-1.4-3-3l0,0c0-1.6,1.3-3,3-3h493c1.7,0,3,1.4,3,3l0,0
	C566.9,480.5,565.6,481.8,563.9,481.8z"/>
<path class="st0" d="M183.2,481.6L183.2,481.6c-1.6,0-3-1.4-3-3v-109c0-1.6,1.4-3,3-3l0,0c1.6,0,3,1.4,3,3v109
	C186.2,480.3,184.9,481.6,183.2,481.6z"/>
<path class="st0" d="M70.9,481.6L70.9,481.6c-1.7,0-3-1.4-3-3v-109c0-1.6,1.3-3,3-3l0,0c1.7,0,3,1.4,3,3v109
	C73.9,480.3,72.5,481.6,70.9,481.6z"/>
<path class="st0" d="M67.8,369.6L67.8,369.6c0-1.6,1.3-3,3-3h112c1.6,0,3,1.4,3,3l0,0c0,1.6-1.4,3-3,3h-112
	C69.2,372.6,67.8,371.3,67.8,369.6z"/>
<rect x="124.7" y="402" class="st0" width="5" height="49"/>
<rect x="108.7" y="446.8" class="st0" width="37" height="5"/>
<rect x="108.7" y="401.4" class="st0" width="37" height="5"/>
<g>
	<path class="st0" d="M459.9,425L459.9,425c0,1.3,1,2.3,2.3,2.4l48.5,0.2c1.3,0,2.4-1,2.4-2.3l0,0c0-1.3-1-2.3-2.3-2.4l-48.5-0.2
		C460.9,422.6,459.9,423.7,459.9,425z"/>
	<path class="st0" d="M502.3,397.8L502.3,397.8c0,1.3,1,2.3,2.3,2.4l48.5,0.2c1.3,0,2.3-1,2.3-2.3l0,0c0-1.3-1-2.3-2.3-2.4
		l-48.5-0.2C503.4,395.5,502.3,396.5,502.3,397.8z"/>
	<path class="st0" d="M509.5,426.1L509.5,426.1c0.6,1.1,2,1.5,3.1,0.8l41.7-26.7c1-0.7,1.4-2.1,0.8-3.2l0,0c-0.6-1.1-2-1.5-3.1-0.8
		l-41.7,26.7C509.2,423.5,508.9,425,509.5,426.1z"/>
	<path class="st0" d="M510,453.8L510,453.8c0.6,1.1,2,1.5,3.1,0.8l41.7-26.7c1-0.7,1.4-2.1,0.8-3.2l0,0c-0.6-1.1-2-1.5-3.1-0.8
		l-41.7,26.7C509.7,451.2,509.4,452.7,510,453.8z"/>
	<path class="st0" d="M509.7,440.3L509.7,440.3c0.6,1.1,2,1.5,3.1,0.8l41.7-26.7c1-0.7,1.4-2.1,0.8-3.2l0,0c-0.6-1.1-2-1.5-3.1-0.8
		l-41.7,26.7C509.5,437.8,509.1,439.2,509.7,440.3z"/>
	<path class="st0" d="M460.4,452.9L460.4,452.9c0,1.3,1,2.3,2.3,2.4l48.5,0.2c1.3,0,2.4-1,2.4-2.3l0,0c0-1.3-1-2.3-2.3-2.4
		l-48.5-0.2C461.5,450.5,460.4,451.6,460.4,452.9z"/>
	<path class="st0" d="M460,439.1L460,439.1c0,1.3,1,2.3,2.3,2.4l48.5,0.2c1.3,0,2.3-1,2.3-2.3l0,0c0-1.3-1-2.3-2.3-2.4l-48.5-0.2
		C461.1,436.8,460,437.8,460,439.1z"/>
	<path class="st0" d="M460.4,426L460.4,426c0.6,1.1,2,1.5,3.1,0.8l41.7-26.7c1-0.7,1.4-2.1,0.8-3.2l0,0c-0.6-1.1-2-1.5-3.1-0.8
		l-41.7,26.7C460,423.5,459.7,424.9,460.4,426z"/>
</g>
<g>
	<g>
		
			<image style="overflow:visible;enable-background:new    ;" width="510" height="236" xlink:href="EE1C74DB.png"  transform="matrix(5.882981e-02 0 0 5.882981e-02 491.8208 404.8966)">
		</image>
	</g>
</g>
</svg>
